<?xml version="1.0" standalone="no"?>
<!DOCTYPE svg PUBLIC "-//W3C//DTD SVG 20010904//EN"
 "http://www.w3.org/TR/2001/REC-SVG-20010904/DTD/svg10.dtd">
<svg version="1.0" xmlns="http://www.w3.org/2000/svg"
 width="512.000000pt" height="512.000000pt" viewBox="0 0 512.000000 512.000000"
 preserveAspectRatio="xMidYMid meet">
<g transform="translate(0.000000,512.000000) scale(0.100000,-0.100000)"
fill="#000000" stroke="none">
<path d="M2324 5105 c-556 -97 -1015 -555 -1107 -1103 l-13 -77 -340 -5 c-334
-5 -340 -5 -377 -28 -20 -13 -48 -43 -62 -66 l-25 -43 0 -1823 0 -1823 25 -43
c15 -26 43 -54 69 -69 l43 -25 2023 0 2023 0 43 25 c26 15 54 43 69 69 l25 43
0 1823 0 1823 -25 43 c-14 23 -42 53 -62 66 -37 23 -43 23 -377 28 l-340 5
-13 77 c-27 163 -111 371 -206 513 -200 297 -499 501 -852 581 -99 22 -414 28
-521 9z m466 -421 c327 -83 592 -337 684 -658 14 -48 26 -92 26 -97 0 -5 -399
-9 -940 -9 -541 0 -940 4 -940 9 0 34 59 200 95 268 210 396 648 594 1075 487z
m-1590 -1496 l0 -331 25 -43 c37 -63 95 -94 175 -94 80 0 138 31 175 94 l25
43 0 331 0 332 960 0 960 0 0 -332 0 -331 25 -43 c37 -63 95 -94 175 -94 80 0
138 31 175 94 l25 43 0 331 0 332 200 0 200 0 0 -1560 0 -1560 -1760 0 -1760
0 0 1560 0 1560 200 0 200 0 0 -332z"/>
</g>
</svg>
